<svg width="180" height="39" viewBox="0 0 180 39" fill="none" xmlns="http://www.w3.org/2000/svg">
<path d="M23.99 36.8113C21.1697 36.4112 18.2905 35.2835 16.1042 33.7226C14.5001 32.5774 12.2241 30.1439 11.296 28.5818C9.86414 26.1715 9.11172 23.907 8.82812 21.1543C8.65178 19.4426 8.87217 16.1175 9.1825 15.8072C9.41391 15.5758 40.1192 29.6255 40.1192 29.9628C40.1192 30.337 37.3068 33.0655 36.111 33.8516C32.4923 36.2301 27.8623 37.3607 23.99 36.8113ZM49.5485 32.6661C43.3324 29.8286 1.77895 10.752 1.00202 10.3791C0.491135 10.1339 0.0425542 9.83927 0.00515564 9.72434C-0.124068 9.32717 2.20066 8.84154 4.19391 8.84932C7.53468 8.86237 9.95748 9.68363 14.391 12.3059C18.8417 14.9383 20.679 15.5467 24.1839 15.5489C25.9449 15.5503 27.9737 15.2612 37.6147 13.6375C43.8608 12.5856 49.1223 11.7301 49.307 11.7366C49.7893 11.7534 48.6448 12.2659 44.4681 13.9037C39.8398 15.7185 35.6376 17.6483 33.4371 18.9695C31.6866 20.0206 30.5014 20.9755 30.5014 21.3348C30.5014 21.6341 31.3175 22.0946 35.6875 24.2612C39.6692 26.2354 42.5321 27.3774 43.4993 27.3774C44.7382 27.3774 47.3485 26.1805 50.5339 24.1519C53.3119 22.3827 54.0157 22.0432 54.6149 22.1831C55.605 22.4143 57.0919 23.0889 57.0919 23.3069C57.0919 23.58 52.059 33.0411 51.7496 33.3496C51.5809 33.5178 51.0598 33.356 49.5485 32.6661ZM41.2782 26.0441C41.0145 25.9385 40.8746 25.7609 40.9338 25.6068C41.9138 23.0529 42.3075 20.2552 42.0245 17.856C41.9101 16.886 41.8165 16.011 41.8165 15.9116C41.8165 15.6423 42.9403 15.2234 43.1295 15.4222C43.3697 15.6748 43.7033 18.1276 43.6958 19.5872C43.6877 21.1602 43.3054 23.3796 42.7602 25.0179C42.3327 26.3024 42.1825 26.4063 41.2782 26.0441ZM39.691 11.0179C38.5443 9.24595 36.9759 7.60776 35.3616 6.49599C33.615 5.29305 32.8578 4.91549 30.8786 4.26045C29.3975 3.77027 29.0462 3.7292 26.2583 3.72009C23.6041 3.7114 23.0707 3.76343 21.8266 4.15232C18.7602 5.11074 15.7412 7.1109 13.8833 9.41492C13.0526 10.4451 12.7143 10.584 12.1108 10.1428C11.5997 9.769 11.8909 9.23208 13.555 7.48024C15.9627 4.94549 19.2661 3.08578 22.6721 2.34758C24.681 1.91216 28.1466 1.96414 30.1954 2.46041C34.8949 3.59876 39.2153 6.84497 41.4385 10.9082C41.9584 11.8583 41.8454 12.2908 41.0772 12.2908C40.5898 12.2908 40.4047 12.1208 39.691 11.0179Z" fill="#F7BA00"/>
<path d="M49.5485 32.6661C43.3324 29.8286 1.77895 10.752 1.00202 10.3791C0.491135 10.1339 0.0425542 9.83929 0.00515564 9.72435C-0.124068 9.32718 2.20066 8.84155 4.19391 8.84934C7.51309 8.86231 10.0679 9.73051 14.4203 12.3246C18.7432 14.9011 20.6982 15.5468 24.1839 15.5489C25.9449 15.5503 27.9737 15.2613 37.6147 13.6375C43.8608 12.5856 49.1223 11.7301 49.307 11.7366C49.7893 11.7534 48.6448 12.266 44.4681 13.9037C39.8398 15.7185 35.6376 17.6483 33.4371 18.9696C31.6866 20.0206 30.5014 20.9755 30.5014 21.3348C30.5014 21.6341 31.3175 22.0946 35.6875 24.2613C39.6692 26.2354 42.5321 27.3774 43.4993 27.3774C44.7382 27.3774 47.3485 26.1805 50.5339 24.1519C53.3119 22.3827 54.0157 22.0432 54.6149 22.1831C55.605 22.4143 57.0919 23.0889 57.0919 23.307C57.0919 23.58 52.059 33.0411 51.7496 33.3496C51.5809 33.5178 51.0598 33.356 49.5485 32.6661Z" fill="#2A43A6"/>
<path d="M76.8198 9.84H82.1958V11.92H76.8198V9.84ZM77.0118 16H74.4198V4.8H82.8838V6.88H77.0118V16ZM84.6385 16V4.8H87.2305V16H84.6385ZM89.8885 16V4.8H94.7365C95.7392 4.8 96.6032 4.96533 97.3285 5.296C98.0539 5.616 98.6139 6.08 99.0085 6.688C99.4032 7.296 99.6005 8.02133 99.6005 8.864C99.6005 9.696 99.4032 10.416 99.0085 11.024C98.6139 11.6213 98.0539 12.08 97.3285 12.4C96.6032 12.72 95.7392 12.88 94.7365 12.88H91.3285L92.4805 11.744V16H89.8885ZM97.0085 16L94.2085 11.936H96.9765L99.8085 16H97.0085ZM92.4805 12.032L91.3285 10.816H94.5925C95.3925 10.816 95.9899 10.6453 96.3845 10.304C96.7792 9.952 96.9765 9.472 96.9765 8.864C96.9765 8.24533 96.7792 7.76533 96.3845 7.424C95.9899 7.08267 95.3925 6.912 94.5925 6.912H91.3285L92.4805 5.68V12.032ZM105.334 16.192C104.438 16.192 103.58 16.0747 102.758 15.84C101.937 15.5947 101.276 15.28 100.774 14.896L101.654 12.944C102.134 13.2853 102.7 13.568 103.35 13.792C104.012 14.0053 104.678 14.112 105.35 14.112C105.862 14.112 106.273 14.064 106.582 13.968C106.902 13.8613 107.137 13.7173 107.286 13.536C107.436 13.3547 107.51 13.1467 107.51 12.912C107.51 12.6133 107.393 12.3787 107.158 12.208C106.924 12.0267 106.614 11.8827 106.23 11.776C105.846 11.6587 105.42 11.552 104.95 11.456C104.492 11.3493 104.028 11.2213 103.558 11.072C103.1 10.9227 102.678 10.7307 102.294 10.496C101.91 10.2613 101.596 9.952 101.35 9.568C101.116 9.184 100.998 8.69333 100.998 8.096C100.998 7.456 101.169 6.87467 101.51 6.352C101.862 5.81867 102.385 5.39733 103.078 5.088C103.782 4.768 104.662 4.608 105.718 4.608C106.422 4.608 107.116 4.69333 107.798 4.864C108.481 5.024 109.084 5.26933 109.606 5.6L108.806 7.568C108.284 7.26933 107.761 7.05067 107.238 6.912C106.716 6.76267 106.204 6.688 105.702 6.688C105.201 6.688 104.79 6.74667 104.47 6.864C104.15 6.98133 103.921 7.136 103.782 7.328C103.644 7.50933 103.574 7.72267 103.574 7.968C103.574 8.256 103.692 8.49067 103.926 8.672C104.161 8.84267 104.47 8.98133 104.854 9.088C105.238 9.19467 105.66 9.30133 106.118 9.408C106.588 9.51467 107.052 9.63733 107.51 9.776C107.98 9.91467 108.406 10.1013 108.79 10.336C109.174 10.5707 109.484 10.88 109.718 11.264C109.964 11.648 110.086 12.1333 110.086 12.72C110.086 13.3493 109.91 13.9253 109.558 14.448C109.206 14.9707 108.678 15.392 107.974 15.712C107.281 16.032 106.401 16.192 105.334 16.192ZM114.021 16V6.912H110.437V4.8H120.197V6.912H116.613V16H114.021ZM131.483 16.192C130.619 16.192 129.814 16.0533 129.067 15.776C128.331 15.488 127.691 15.0827 127.147 14.56C126.603 14.0373 126.176 13.424 125.867 12.72C125.568 12.016 125.419 11.2427 125.419 10.4C125.419 9.55733 125.568 8.784 125.867 8.08C126.176 7.376 126.603 6.76267 127.147 6.24C127.702 5.71733 128.347 5.31733 129.083 5.04C129.819 4.752 130.624 4.608 131.499 4.608C132.47 4.608 133.344 4.77867 134.123 5.12C134.912 5.45067 135.574 5.94133 136.107 6.592L134.443 8.128C134.059 7.69067 133.632 7.36533 133.163 7.152C132.694 6.928 132.182 6.816 131.627 6.816C131.104 6.816 130.624 6.90133 130.187 7.072C129.75 7.24267 129.371 7.488 129.051 7.808C128.731 8.128 128.48 8.50667 128.299 8.944C128.128 9.38133 128.043 9.86667 128.043 10.4C128.043 10.9333 128.128 11.4187 128.299 11.856C128.48 12.2933 128.731 12.672 129.051 12.992C129.371 13.312 129.75 13.5573 130.187 13.728C130.624 13.8987 131.104 13.984 131.627 13.984C132.182 13.984 132.694 13.8773 133.163 13.664C133.632 13.44 134.059 13.104 134.443 12.656L136.107 14.192C135.574 14.8427 134.912 15.3387 134.123 15.68C133.344 16.0213 132.464 16.192 131.483 16.192ZM137.857 16V4.8H140.449V13.888H146.065V16H137.857ZM146.104 16L151.096 4.8H153.656L158.664 16H155.944L151.848 6.112H152.872L148.76 16H146.104ZM148.6 13.6L149.288 11.632H155.048L155.752 13.6H148.6ZM163.506 16.192C162.61 16.192 161.751 16.0747 160.93 15.84C160.109 15.5947 159.447 15.28 158.946 14.896L159.826 12.944C160.306 13.2853 160.871 13.568 161.522 13.792C162.183 14.0053 162.85 14.112 163.522 14.112C164.034 14.112 164.445 14.064 164.754 13.968C165.074 13.8613 165.309 13.7173 165.458 13.536C165.607 13.3547 165.682 13.1467 165.682 12.912C165.682 12.6133 165.565 12.3787 165.33 12.208C165.095 12.0267 164.786 11.8827 164.402 11.776C164.018 11.6587 163.591 11.552 163.122 11.456C162.663 11.3493 162.199 11.2213 161.73 11.072C161.271 10.9227 160.85 10.7307 160.466 10.496C160.082 10.2613 159.767 9.952 159.522 9.568C159.287 9.184 159.17 8.69333 159.17 8.096C159.17 7.456 159.341 6.87467 159.682 6.352C160.034 5.81867 160.557 5.39733 161.25 5.088C161.954 4.768 162.834 4.608 163.89 4.608C164.594 4.608 165.287 4.69333 165.97 4.864C166.653 5.024 167.255 5.26933 167.778 5.6L166.978 7.568C166.455 7.26933 165.933 7.05067 165.41 6.912C164.887 6.76267 164.375 6.688 163.874 6.688C163.373 6.688 162.962 6.74667 162.642 6.864C162.322 6.98133 162.093 7.136 161.954 7.328C161.815 7.50933 161.746 7.72267 161.746 7.968C161.746 8.256 161.863 8.49067 162.098 8.672C162.333 8.84267 162.642 8.98133 163.026 9.088C163.41 9.19467 163.831 9.30133 164.29 9.408C164.759 9.51467 165.223 9.63733 165.682 9.776C166.151 9.91467 166.578 10.1013 166.962 10.336C167.346 10.5707 167.655 10.88 167.89 11.264C168.135 11.648 168.258 12.1333 168.258 12.72C168.258 13.3493 168.082 13.9253 167.73 14.448C167.378 14.9707 166.85 15.392 166.146 15.712C165.453 16.032 164.573 16.192 163.506 16.192ZM173.709 16.192C172.813 16.192 171.955 16.0747 171.133 15.84C170.312 15.5947 169.651 15.28 169.149 14.896L170.029 12.944C170.509 13.2853 171.075 13.568 171.725 13.792C172.387 14.0053 173.053 14.112 173.725 14.112C174.237 14.112 174.648 14.064 174.957 13.968C175.277 13.8613 175.512 13.7173 175.661 13.536C175.811 13.3547 175.885 13.1467 175.885 12.912C175.885 12.6133 175.768 12.3787 175.533 12.208C175.299 12.0267 174.989 11.8827 174.605 11.776C174.221 11.6587 173.795 11.552 173.325 11.456C172.867 11.3493 172.403 11.2213 171.933 11.072C171.475 10.9227 171.053 10.7307 170.669 10.496C170.285 10.2613 169.971 9.952 169.725 9.568C169.491 9.184 169.373 8.69333 169.373 8.096C169.373 7.456 169.544 6.87467 169.885 6.352C170.237 5.81867 170.76 5.39733 171.453 5.088C172.157 4.768 173.037 4.608 174.093 4.608C174.797 4.608 175.491 4.69333 176.173 4.864C176.856 5.024 177.459 5.26933 177.981 5.6L177.181 7.568C176.659 7.26933 176.136 7.05067 175.613 6.912C175.091 6.76267 174.579 6.688 174.077 6.688C173.576 6.688 173.165 6.74667 172.845 6.864C172.525 6.98133 172.296 7.136 172.157 7.328C172.019 7.50933 171.949 7.72267 171.949 7.968C171.949 8.256 172.067 8.49067 172.301 8.672C172.536 8.84267 172.845 8.98133 173.229 9.088C173.613 9.19467 174.035 9.30133 174.493 9.408C174.963 9.51467 175.427 9.63733 175.885 9.776C176.355 9.91467 176.781 10.1013 177.165 10.336C177.549 10.5707 177.859 10.88 178.093 11.264C178.339 11.648 178.461 12.1333 178.461 12.72C178.461 13.3493 178.285 13.9253 177.933 14.448C177.581 14.9707 177.053 15.392 176.349 15.712C175.656 16.032 174.776 16.192 173.709 16.192ZM75.6268 30.203H80.3198V31.321H75.6268V30.203ZM75.7568 35H74.4568V25.9H80.8788V27.031H75.7568V35ZM86.7152 35.104C86.0219 35.104 85.3762 34.987 84.7782 34.753C84.1889 34.519 83.6775 34.194 83.2442 33.778C82.8109 33.3533 82.4729 32.8593 82.2302 32.296C81.9875 31.7327 81.8662 31.1173 81.8662 30.45C81.8662 29.7827 81.9875 29.1673 82.2302 28.604C82.4729 28.0407 82.8109 27.551 83.2442 27.135C83.6775 26.7103 84.1889 26.381 84.7782 26.147C85.3675 25.913 86.0132 25.796 86.7152 25.796C87.4085 25.796 88.0455 25.913 88.6262 26.147C89.2155 26.3723 89.7269 26.6973 90.1602 27.122C90.6022 27.538 90.9402 28.0277 91.1742 28.591C91.4169 29.1543 91.5382 29.774 91.5382 30.45C91.5382 31.126 91.4169 31.7457 91.1742 32.309C90.9402 32.8723 90.6022 33.3663 90.1602 33.791C89.7269 34.207 89.2155 34.532 88.6262 34.766C88.0455 34.9913 87.4085 35.104 86.7152 35.104ZM86.7152 33.947C87.2179 33.947 87.6815 33.8603 88.1062 33.687C88.5395 33.5137 88.9122 33.271 89.2242 32.959C89.5449 32.6383 89.7919 32.2657 89.9652 31.841C90.1472 31.4163 90.2382 30.9527 90.2382 30.45C90.2382 29.9473 90.1472 29.4837 89.9652 29.059C89.7919 28.6343 89.5449 28.266 89.2242 27.954C88.9122 27.6333 88.5395 27.3863 88.1062 27.213C87.6815 27.0397 87.2179 26.953 86.7152 26.953C86.2039 26.953 85.7315 27.0397 85.2982 27.213C84.8735 27.3863 84.5009 27.6333 84.1802 27.954C83.8595 28.266 83.6082 28.6343 83.4262 29.059C83.2529 29.4837 83.1662 29.9473 83.1662 30.45C83.1662 30.9527 83.2529 31.4163 83.4262 31.841C83.6082 32.2657 83.8595 32.6383 84.1802 32.959C84.5009 33.271 84.8735 33.5137 85.2982 33.687C85.7315 33.8603 86.2039 33.947 86.7152 33.947ZM93.5252 35V25.9H97.0742C97.8715 25.9 98.5518 26.0257 99.1152 26.277C99.6785 26.5283 100.112 26.8923 100.415 27.369C100.718 27.8457 100.87 28.4133 100.87 29.072C100.87 29.7307 100.718 30.2983 100.415 30.775C100.112 31.243 99.6785 31.6027 99.1152 31.854C98.5518 32.1053 97.8715 32.231 97.0742 32.231H94.2402L94.8252 31.633V35H93.5252ZM99.6092 35L97.2952 31.698H98.6862L101.026 35H99.6092ZM94.8252 31.763L94.2402 31.126H97.0352C97.8672 31.126 98.4955 30.9483 98.9202 30.593C99.3535 30.229 99.5702 29.722 99.5702 29.072C99.5702 28.422 99.3535 27.9193 98.9202 27.564C98.4955 27.2087 97.8672 27.031 97.0352 27.031H94.2402L94.8252 26.381V31.763ZM106.462 35V25.9H107.762V33.869H112.689V35H106.462ZM115.363 29.826H120.043V30.931H115.363V29.826ZM115.48 33.869H120.784V35H114.18V25.9H120.602V27.031H115.48V33.869ZM125.541 35.104C124.848 35.104 124.185 35 123.552 34.792C122.92 34.5753 122.421 34.298 122.057 33.96L122.538 32.946C122.885 33.2493 123.327 33.5007 123.864 33.7C124.402 33.8993 124.961 33.999 125.541 33.999C126.07 33.999 126.499 33.9383 126.828 33.817C127.158 33.6957 127.4 33.531 127.556 33.323C127.712 33.1063 127.79 32.8637 127.79 32.595C127.79 32.283 127.686 32.0317 127.478 31.841C127.279 31.6503 127.015 31.4987 126.685 31.386C126.365 31.2647 126.009 31.1607 125.619 31.074C125.229 30.9873 124.835 30.8877 124.436 30.775C124.046 30.6537 123.687 30.502 123.357 30.32C123.037 30.138 122.777 29.8953 122.577 29.592C122.378 29.28 122.278 28.8813 122.278 28.396C122.278 27.928 122.4 27.499 122.642 27.109C122.894 26.7103 123.275 26.394 123.786 26.16C124.306 25.9173 124.965 25.796 125.762 25.796C126.291 25.796 126.815 25.8653 127.335 26.004C127.855 26.1427 128.306 26.342 128.687 26.602L128.258 27.642C127.868 27.382 127.457 27.1957 127.023 27.083C126.59 26.9617 126.17 26.901 125.762 26.901C125.251 26.901 124.831 26.966 124.501 27.096C124.172 27.226 123.929 27.3993 123.773 27.616C123.626 27.8327 123.552 28.0753 123.552 28.344C123.552 28.6647 123.652 28.9203 123.851 29.111C124.059 29.3017 124.324 29.4533 124.644 29.566C124.974 29.6787 125.333 29.7827 125.723 29.878C126.113 29.9647 126.503 30.0643 126.893 30.177C127.292 30.2897 127.652 30.437 127.972 30.619C128.302 30.801 128.566 31.0437 128.765 31.347C128.965 31.6503 129.064 32.0403 129.064 32.517C129.064 32.9763 128.939 33.4053 128.687 33.804C128.436 34.194 128.046 34.5103 127.517 34.753C126.997 34.987 126.339 35.104 125.541 35.104ZM133.616 35.104C132.922 35.104 132.259 35 131.627 34.792C130.994 34.5753 130.496 34.298 130.132 33.96L130.613 32.946C130.959 33.2493 131.401 33.5007 131.939 33.7C132.476 33.8993 133.035 33.999 133.616 33.999C134.144 33.999 134.573 33.9383 134.903 33.817C135.232 33.6957 135.475 33.531 135.631 33.323C135.787 33.1063 135.865 32.8637 135.865 32.595C135.865 32.283 135.761 32.0317 135.553 31.841C135.353 31.6503 135.089 31.4987 134.76 31.386C134.439 31.2647 134.084 31.1607 133.694 31.074C133.304 30.9873 132.909 30.8877 132.511 30.775C132.121 30.6537 131.761 30.502 131.432 30.32C131.111 30.138 130.851 29.8953 130.652 29.592C130.452 29.28 130.353 28.8813 130.353 28.396C130.353 27.928 130.474 27.499 130.717 27.109C130.968 26.7103 131.349 26.394 131.861 26.16C132.381 25.9173 133.039 25.796 133.837 25.796C134.365 25.796 134.89 25.8653 135.41 26.004C135.93 26.1427 136.38 26.342 136.762 26.602L136.333 27.642C135.943 27.382 135.531 27.1957 135.098 27.083C134.664 26.9617 134.244 26.901 133.837 26.901C133.325 26.901 132.905 26.966 132.576 27.096C132.246 27.226 132.004 27.3993 131.848 27.616C131.7 27.8327 131.627 28.0753 131.627 28.344C131.627 28.6647 131.726 28.9203 131.926 29.111C132.134 29.3017 132.398 29.4533 132.719 29.566C133.048 29.6787 133.408 29.7827 133.798 29.878C134.188 29.9647 134.578 30.0643 134.968 30.177C135.366 30.2897 135.726 30.437 136.047 30.619C136.376 30.801 136.64 31.0437 136.84 31.347C137.039 31.6503 137.139 32.0403 137.139 32.517C137.139 32.9763 137.013 33.4053 136.762 33.804C136.51 34.194 136.12 34.5103 135.592 34.753C135.072 34.987 134.413 35.104 133.616 35.104Z" fill="#2A43A6"/>
</svg>
